<svg width="155" height="43" viewBox="0 0 155 43" fill="none" xmlns="http://www.w3.org/2000/svg">
<path d="M32.5645 41.48C32.2285 41.6 31.8685 41.66 31.4845 41.66C31.1005 41.684 30.7285 41.648 30.3685 41.552C29.4085 41.24 28.6165 40.736 27.9925 40.04C27.1525 39.128 26.4565 38.096 25.9045 36.944C25.3765 35.792 24.9805 34.604 24.7165 33.38C24.3565 31.652 24.2125 29.9 24.2845 28.124C24.3565 26.348 24.5965 24.596 25.0045 22.868C25.2445 21.86 25.5925 20.888 26.0485 19.952C26.5045 18.992 27.0925 18.152 27.8125 17.432C28.0525 17.168 28.3405 16.964 28.6765 16.82C29.0125 16.676 29.3485 16.568 29.6845 16.496C30.5725 16.304 31.4125 16.292 32.2045 16.46C33.1165 16.7 33.8845 17.144 34.5085 17.792C34.7485 18.056 34.9525 18.344 35.1205 18.656C35.2885 18.968 35.3965 19.292 35.4445 19.628C35.5645 20.396 35.5285 21.176 35.3365 21.968C35.1445 22.736 34.9765 23.504 34.8325 24.272C34.5925 25.568 34.3885 26.876 34.2205 28.196C34.0525 29.492 33.9805 30.8 34.0045 32.12C34.0285 33.032 34.1245 33.932 34.2925 34.82C34.4845 35.684 34.6045 36.56 34.6525 37.448C34.6765 37.928 34.6405 38.396 34.5445 38.852C34.4485 39.308 34.2805 39.74 34.0405 40.148C33.6805 40.772 33.1885 41.216 32.5645 41.48Z" fill="#4FD1C5"/>
<path d="M48.6917 41.84C47.7077 41.96 46.7237 42.056 45.7397 42.128C44.7557 42.2 43.7957 42.104 42.8597 41.84C42.6917 41.792 42.5237 41.732 42.3557 41.66C42.1877 41.588 42.0437 41.492 41.9237 41.372C41.7797 41.276 41.6477 41.168 41.5277 41.048C41.4317 40.904 41.3357 40.76 41.2397 40.616C40.9277 40.496 40.7117 40.244 40.5917 39.86C40.2557 39.02 39.9437 38.156 39.6557 37.268C39.3677 36.38 39.1277 35.48 38.9357 34.568C38.6237 33.008 38.3597 31.46 38.1437 29.924C37.9517 28.364 37.8197 26.792 37.7477 25.208C37.7237 24.8 37.6997 24.38 37.6757 23.948C37.6757 23.516 37.6757 23.084 37.6757 22.652C37.6517 22.292 37.6157 21.932 37.5677 21.572C37.5437 21.212 37.5557 20.852 37.6037 20.492C37.6277 20.204 37.6517 19.916 37.6757 19.628C37.7237 19.316 37.7957 19.028 37.8917 18.764C38.0357 18.356 38.1917 17.96 38.3597 17.576C38.5517 17.192 38.7797 16.856 39.0437 16.568C39.3317 16.256 39.6557 16.004 40.0157 15.812C40.3997 15.596 40.7957 15.428 41.2037 15.308C42.0917 14.996 42.9917 14.78 43.9037 14.66C44.8397 14.516 45.7757 14.444 46.7117 14.444C47.5517 14.42 48.3917 14.468 49.2317 14.588C50.0957 14.708 50.9117 14.936 51.6797 15.272C52.7357 15.752 53.7317 16.352 54.6677 17.072C55.6277 17.768 56.4317 18.584 57.0797 19.52C57.9197 20.72 58.5557 22.052 58.9877 23.516C59.4437 24.956 59.6597 26.408 59.6357 27.872C59.6117 28.928 59.5277 29.984 59.3837 31.04C59.2397 32.096 58.9637 33.116 58.5557 34.1C58.1237 35.108 57.5477 36.056 56.8277 36.944C56.1077 37.808 55.3157 38.588 54.4517 39.284C53.8517 39.764 53.2157 40.22 52.5437 40.652C51.8957 41.06 51.1997 41.36 50.4557 41.552C50.1677 41.624 49.8677 41.672 49.5557 41.696C49.2677 41.744 48.9797 41.792 48.6917 41.84ZM47.0717 31.724C47.6237 31.772 48.1517 31.724 48.6557 31.58C49.1837 31.412 49.6517 31.172 50.0597 30.86C50.4677 30.524 50.7917 30.128 51.0317 29.672C51.2957 29.192 51.4517 28.676 51.4997 28.124C51.5237 27.788 51.5237 27.464 51.4997 27.152C51.4757 26.816 51.4157 26.492 51.3197 26.18C51.1997 25.796 51.0197 25.436 50.7797 25.1C50.5397 24.74 50.2757 24.428 49.9877 24.164C49.6517 23.852 49.2677 23.624 48.8357 23.48C48.4037 23.336 47.9597 23.24 47.5037 23.192C47.4317 23.168 47.2757 23.156 47.0357 23.156C46.7957 23.132 46.6517 23.12 46.6037 23.12C46.5317 23.264 46.4837 23.42 46.4597 23.588C46.4357 23.732 46.4117 23.876 46.3877 24.02C46.2197 25.316 46.2077 26.612 46.3517 27.908C46.5197 29.204 46.7597 30.476 47.0717 31.724Z" fill="#4FD1C5"/>
<path d="M73.9198 40.112C72.6478 40.304 71.3518 40.34 70.0318 40.22C68.7358 40.1 67.4998 39.788 66.3238 39.284C65.6758 39.02 65.0518 38.696 64.4518 38.312C63.8758 37.904 63.3598 37.448 62.9038 36.944C62.5438 36.512 62.2318 36.032 61.9678 35.504C61.7038 34.976 61.5238 34.436 61.4278 33.884C61.4038 33.86 61.3798 33.812 61.3558 33.74C61.3558 33.644 61.3558 33.584 61.3558 33.56C61.1638 32.84 61.0678 32.096 61.0678 31.328C61.0678 30.536 61.1638 29.768 61.3558 29.024C61.7158 27.464 62.3878 26.072 63.3718 24.848C64.3318 23.624 65.4958 22.592 66.8638 21.752C68.2318 20.888 69.6718 20.252 71.1838 19.844C72.7438 19.436 74.3758 19.328 76.0798 19.52C77.7838 19.688 79.3438 20.168 80.7598 20.96C81.4558 21.368 82.1158 21.86 82.7398 22.436C83.3638 23.012 83.8798 23.648 84.2878 24.344C84.6238 24.968 84.8638 25.628 85.0078 26.324C85.1758 27.02 85.2478 27.716 85.2238 28.412C85.1758 29.252 85.0078 30.092 84.7198 30.932C84.4558 31.772 84.1078 32.552 83.6758 33.272C82.9558 34.496 82.0558 35.588 80.9758 36.548C79.8958 37.508 78.7318 38.324 77.4838 38.996C76.9318 39.284 76.3558 39.524 75.7558 39.716C75.1558 39.884 74.5438 40.016 73.9198 40.112ZM72.0118 32.012C72.3238 32.036 72.6358 32.036 72.9478 32.012C73.2598 31.964 73.5598 31.868 73.8478 31.724C74.2798 31.508 74.6998 31.208 75.1078 30.824C75.5398 30.44 75.9118 30.032 76.2238 29.6C76.5598 29.144 76.7998 28.676 76.9438 28.196C77.1118 27.692 77.1358 27.2 77.0158 26.72C76.9438 26.456 76.8118 26.216 76.6198 26C76.4518 25.76 76.2478 25.58 76.0078 25.46C75.5278 25.196 75.0118 25.088 74.4598 25.136C73.9318 25.184 73.3918 25.328 72.8398 25.568C72.3118 25.808 71.8078 26.132 71.3278 26.54C70.8718 26.924 70.4758 27.332 70.1398 27.764C69.9478 28.028 69.7678 28.328 69.5998 28.664C69.4558 28.976 69.3598 29.3 69.3118 29.636C69.2398 30.452 69.5758 31.088 70.3198 31.544C70.5598 31.712 70.8238 31.832 71.1118 31.904C71.3998 31.952 71.6998 31.988 72.0118 32.012Z" fill="#4FD1C5"/>
<path d="M93.715 40.832C93.019 41.288 92.239 41.528 91.375 41.552C90.535 41.576 89.755 41.372 89.035 40.94C88.723 40.748 88.459 40.508 88.243 40.22C87.979 39.836 87.775 39.236 87.631 38.42C87.487 37.58 87.379 36.692 87.307 35.756C87.259 34.82 87.235 33.92 87.235 33.056C87.235 32.168 87.235 31.496 87.235 31.04C87.235 29.672 87.247 28.328 87.271 27.008C87.319 25.664 87.415 24.308 87.559 22.94C87.583 22.604 87.619 22.148 87.667 21.572C87.715 20.972 87.775 20.372 87.847 19.772C87.943 19.148 88.063 18.584 88.207 18.08C88.375 17.552 88.591 17.18 88.855 16.964C89.335 16.58 89.851 16.292 90.403 16.1C90.979 15.884 91.567 15.704 92.167 15.56C93.775 15.2 95.431 15.044 97.135 15.092C98.839 15.14 100.483 15.44 102.067 15.992C102.907 16.304 103.711 16.736 104.479 17.288C105.247 17.816 105.871 18.464 106.351 19.232C106.831 20.072 107.143 20.996 107.287 22.004C107.431 23.012 107.419 23.996 107.251 24.956C107.131 25.58 106.963 26.18 106.747 26.756C106.531 27.332 106.255 27.872 105.919 28.376C105.439 29.048 104.875 29.648 104.227 30.176C103.579 30.704 102.895 31.172 102.175 31.58C101.119 32.18 99.991 32.612 98.791 32.876C97.615 33.14 96.415 33.38 95.191 33.596C95.263 33.812 95.311 34.16 95.335 34.64C95.359 35.12 95.371 35.624 95.371 36.152C95.371 36.68 95.347 37.184 95.299 37.664C95.275 38.144 95.239 38.504 95.191 38.744C95.119 39.152 94.939 39.536 94.651 39.896C94.387 40.256 94.075 40.568 93.715 40.832ZM96.055 22.436C95.887 22.58 95.767 22.808 95.695 23.12C95.623 23.432 95.575 23.78 95.551 24.164C95.551 24.524 95.551 24.884 95.551 25.244C95.551 25.604 95.551 25.892 95.551 26.108C95.743 26.084 96.007 26.048 96.343 26C96.679 25.928 97.015 25.844 97.351 25.748C97.687 25.652 97.999 25.544 98.287 25.424C98.599 25.304 98.815 25.172 98.935 25.028C99.055 24.884 99.151 24.728 99.223 24.56C99.295 24.392 99.319 24.212 99.295 24.02C99.271 23.732 99.163 23.492 98.971 23.3C98.803 23.084 98.587 22.904 98.323 22.76C98.059 22.616 97.771 22.508 97.459 22.436C97.171 22.364 96.883 22.328 96.595 22.328C96.379 22.28 96.199 22.316 96.055 22.436Z" fill="#4FD1C5"/>
<path d="M117.987 18.404C117.723 18.644 117.423 18.8 117.087 18.872C116.775 18.92 116.463 18.908 116.151 18.836C115.839 18.74 115.551 18.584 115.287 18.368C115.023 18.128 114.807 17.852 114.639 17.54C114.543 17.348 114.471 17.12 114.423 16.856C114.327 16.232 114.315 15.596 114.387 14.948C114.483 14.3 114.591 13.664 114.711 13.04C114.831 12.416 114.999 11.804 115.215 11.204C115.431 10.604 115.743 10.064 116.151 9.584C116.463 9.2 116.835 8.876 117.267 8.612C117.723 8.348 118.179 8.168 118.635 8.072C119.115 7.976 119.583 7.976 120.039 8.072C120.519 8.168 120.963 8.372 121.371 8.684C121.635 8.876 121.863 9.116 122.055 9.404C122.271 9.692 122.403 10.004 122.451 10.34C122.499 10.748 122.451 11.12 122.307 11.456C122.115 12.032 121.863 12.596 121.551 13.148C121.263 13.7 120.939 14.228 120.579 14.732C120.291 15.116 120.015 15.5 119.751 15.884C119.487 16.268 119.223 16.664 118.959 17.072C118.815 17.312 118.659 17.552 118.491 17.792C118.347 18.008 118.179 18.212 117.987 18.404ZM121.083 40.112C119.811 40.304 118.515 40.34 117.195 40.22C115.899 40.1 114.663 39.788 113.487 39.284C112.839 39.02 112.215 38.696 111.615 38.312C111.039 37.904 110.523 37.448 110.067 36.944C109.707 36.512 109.395 36.032 109.131 35.504C108.867 34.976 108.687 34.436 108.591 33.884C108.567 33.86 108.543 33.812 108.519 33.74C108.519 33.644 108.519 33.584 108.519 33.56C108.327 32.84 108.231 32.096 108.231 31.328C108.231 30.536 108.327 29.768 108.519 29.024C108.879 27.464 109.551 26.072 110.535 24.848C111.495 23.624 112.659 22.592 114.027 21.752C115.395 20.888 116.835 20.252 118.347 19.844C119.907 19.436 121.539 19.328 123.243 19.52C124.947 19.688 126.507 20.168 127.923 20.96C128.619 21.368 129.279 21.86 129.903 22.436C130.527 23.012 131.043 23.648 131.451 24.344C131.787 24.968 132.027 25.628 132.171 26.324C132.339 27.02 132.411 27.716 132.387 28.412C132.339 29.252 132.171 30.092 131.883 30.932C131.619 31.772 131.271 32.552 130.839 33.272C130.119 34.496 129.219 35.588 128.139 36.548C127.059 37.508 125.895 38.324 124.647 38.996C124.095 39.284 123.519 39.524 122.919 39.716C122.319 39.884 121.707 40.016 121.083 40.112ZM119.175 32.012C119.487 32.036 119.799 32.036 120.111 32.012C120.423 31.964 120.723 31.868 121.011 31.724C121.443 31.508 121.863 31.208 122.271 30.824C122.703 30.44 123.075 30.032 123.387 29.6C123.723 29.144 123.963 28.676 124.107 28.196C124.275 27.692 124.299 27.2 124.179 26.72C124.107 26.456 123.975 26.216 123.783 26C123.615 25.76 123.411 25.58 123.171 25.46C122.691 25.196 122.175 25.088 121.623 25.136C121.095 25.184 120.555 25.328 120.003 25.568C119.475 25.808 118.971 26.132 118.491 26.54C118.035 26.924 117.639 27.332 117.303 27.764C117.111 28.028 116.931 28.328 116.763 28.664C116.619 28.976 116.523 29.3 116.475 29.636C116.403 30.452 116.739 31.088 117.483 31.544C117.723 31.712 117.987 31.832 118.275 31.904C118.563 31.952 118.863 31.988 119.175 32.012ZM123.783 18.404C123.543 18.452 123.303 18.476 123.063 18.476C122.823 18.476 122.595 18.428 122.379 18.332C122.187 18.236 122.019 18.104 121.875 17.936C121.755 17.768 121.671 17.588 121.623 17.396C121.527 16.988 121.539 16.52 121.659 15.992C121.803 15.368 122.055 14.768 122.415 14.192C122.775 13.592 123.219 13.1 123.747 12.716C124.131 12.428 124.527 12.176 124.935 11.96C125.367 11.744 125.799 11.552 126.231 11.384C126.639 11.24 127.047 11.12 127.455 11.024C127.863 10.928 128.271 10.94 128.679 11.06C129.135 11.18 129.531 11.408 129.867 11.744C130.203 12.08 130.455 12.464 130.623 12.896C130.815 13.328 130.911 13.784 130.911 14.264C130.911 14.744 130.791 15.188 130.551 15.596C130.335 15.956 129.939 16.292 129.363 16.604C128.787 16.916 128.151 17.192 127.455 17.432C126.783 17.672 126.099 17.876 125.403 18.044C124.731 18.212 124.191 18.332 123.783 18.404Z" fill="#4FD1C5"/>
<path d="M140.878 40.832C140.182 41.288 139.402 41.528 138.538 41.552C137.698 41.576 136.918 41.372 136.198 40.94C135.886 40.748 135.622 40.508 135.406 40.22C135.142 39.836 134.938 39.236 134.794 38.42C134.65 37.58 134.542 36.692 134.47 35.756C134.422 34.82 134.398 33.92 134.398 33.056C134.398 32.168 134.398 31.496 134.398 31.04C134.398 29.672 134.41 28.328 134.434 27.008C134.482 25.664 134.578 24.308 134.722 22.94C134.746 22.604 134.782 22.148 134.83 21.572C134.878 20.972 134.938 20.372 135.01 19.772C135.106 19.148 135.226 18.584 135.37 18.08C135.538 17.552 135.754 17.18 136.018 16.964C136.498 16.58 137.014 16.292 137.566 16.1C138.142 15.884 138.73 15.704 139.33 15.56C140.938 15.2 142.594 15.044 144.298 15.092C146.002 15.14 147.646 15.44 149.23 15.992C150.07 16.304 150.874 16.736 151.642 17.288C152.41 17.816 153.034 18.464 153.514 19.232C153.994 20.072 154.306 20.996 154.45 22.004C154.594 23.012 154.582 23.996 154.414 24.956C154.294 25.58 154.126 26.18 153.91 26.756C153.694 27.332 153.418 27.872 153.082 28.376C152.602 29.048 152.038 29.648 151.39 30.176C150.742 30.704 150.058 31.172 149.338 31.58C148.282 32.18 147.154 32.612 145.954 32.876C144.778 33.14 143.578 33.38 142.354 33.596C142.426 33.812 142.474 34.16 142.498 34.64C142.522 35.12 142.534 35.624 142.534 36.152C142.534 36.68 142.51 37.184 142.462 37.664C142.438 38.144 142.402 38.504 142.354 38.744C142.282 39.152 142.102 39.536 141.814 39.896C141.55 40.256 141.238 40.568 140.878 40.832ZM143.218 22.436C143.05 22.58 142.93 22.808 142.858 23.12C142.786 23.432 142.738 23.78 142.714 24.164C142.714 24.524 142.714 24.884 142.714 25.244C142.714 25.604 142.714 25.892 142.714 26.108C142.906 26.084 143.17 26.048 143.506 26C143.842 25.928 144.178 25.844 144.514 25.748C144.85 25.652 145.162 25.544 145.45 25.424C145.762 25.304 145.978 25.172 146.098 25.028C146.218 24.884 146.314 24.728 146.386 24.56C146.458 24.392 146.482 24.212 146.458 24.02C146.434 23.732 146.326 23.492 146.134 23.3C145.966 23.084 145.75 22.904 145.486 22.76C145.222 22.616 144.934 22.508 144.622 22.436C144.334 22.364 144.046 22.328 143.758 22.328C143.542 22.28 143.362 22.316 143.218 22.436Z" fill="#4FD1C5"/>
<path d="M14.9625 13.8255C14.6173 13.682 14.3272 13.462 14.0925 13.1656C13.9252 12.9325 13.7859 12.6925 13.6748 12.4455C13.5427 12.1695 13.4235 11.8959 13.3171 11.625C13.1157 11.1602 12.9119 10.7075 12.7057 10.2668C12.4996 9.82614 12.2806 9.3829 12.0487 8.93711C11.7637 8.35584 11.5219 7.75817 11.3235 7.1441C11.0993 6.52494 10.9418 5.9065 10.8508 5.28878C10.7635 4.92165 10.7861 4.53885 10.9185 4.14037C11.0367 3.81401 11.24 3.52953 11.5283 3.28693C11.791 3.03923 12.0827 2.84725 12.4034 2.711C12.902 2.48513 13.4177 2.37508 13.9504 2.38085C14.4574 2.38153 14.9582 2.48091 15.4528 2.679C15.9217 2.87199 16.3738 3.14912 16.8093 3.51039C17.2191 3.86656 17.5528 4.27009 17.8103 4.72097C18.1515 5.2884 18.378 5.89554 18.4899 6.5424C18.6018 7.18925 18.6599 7.83793 18.6643 8.48844C18.6686 9.13895 18.6578 9.79893 18.6317 10.4684C18.5799 11.1327 18.4407 11.7672 18.2139 12.3719C18.1101 12.6261 17.9877 12.8392 17.8468 13.0111C17.605 13.288 17.319 13.5185 16.9888 13.7029C16.6634 13.8632 16.3242 13.9583 15.9712 13.9882C15.6231 13.994 15.2868 13.9398 14.9625 13.8255Z" fill="#2D3748"/>
<path d="M8.64642 12.1598C8.3896 12.1088 8.13755 12.0338 7.89028 11.9348C7.468 11.776 6.91401 11.5411 6.22831 11.2301C5.51693 10.9141 4.82555 10.5645 4.15416 10.1814C3.45709 9.7932 2.83138 9.38169 2.27704 8.94686C1.72269 8.51203 1.36573 8.09138 1.20615 7.68492C1.03043 7.22529 0.990275 6.75508 1.08569 6.27429C1.1811 5.7935 1.37447 5.35714 1.66579 4.9652C1.93144 4.56817 2.27742 4.23705 2.70376 3.97185C3.13009 3.70665 3.59917 3.56237 4.11097 3.539C4.57142 3.50545 5.0104 3.58007 5.42791 3.76287C5.84542 3.94567 6.25815 4.1525 6.66612 4.38338C7.095 4.6434 7.51911 4.92745 7.93845 5.23554C8.33211 5.53854 8.70577 5.87504 9.05943 6.24506C9.5481 6.74182 9.92542 7.32891 10.1914 8.00634C10.4621 8.65974 10.6125 9.31424 10.6426 9.96984C10.666 10.5242 10.5858 10.9955 10.402 11.3838C10.3125 11.5659 10.1868 11.7284 10.025 11.8712C9.83753 12.0089 9.63152 12.1054 9.40698 12.1608C9.15676 12.2111 8.90324 12.2107 8.64642 12.1598Z" fill="#2D3748"/>
<path d="M6.60326 41.4193C6.03216 41.7498 5.42538 41.9386 4.7829 41.9858C4.14042 42.033 3.53363 41.9622 2.96254 41.7734C2.39145 41.6082 1.86795 41.3131 1.39204 40.8882C0.939923 40.487 0.594888 39.9795 0.356933 39.3657C0.21416 38.9645 0.118978 38.5632 0.0713866 38.1619C0.0237955 37.737 0 37.3122 0 36.8873C0.047591 33.9131 0.309342 30.9626 0.785252 28.0356C1.28496 25.1087 1.90364 22.1935 2.6413 19.2902C2.85546 18.3932 3.10531 17.508 3.39086 16.6347C3.67641 15.7377 4.10473 14.947 4.67582 14.2624C4.81859 14.0736 4.98516 13.9202 5.17552 13.8022C5.38968 13.6605 5.59195 13.5425 5.78231 13.4481C6.25822 13.2592 6.75793 13.153 7.28143 13.1294C7.82873 13.1058 8.34033 13.1766 8.81624 13.3419C9.22076 13.4835 9.5539 13.7549 9.81565 14.1562C10.1012 14.5339 10.3392 14.9234 10.5295 15.3246C11.0054 16.4577 11.2553 17.6497 11.2791 18.9007C11.3029 20.1517 11.2434 21.3792 11.1006 22.583C11.6479 22.2289 12.1595 21.8513 12.6354 21.45C13.1351 21.0487 13.6586 20.6828 14.2059 20.3524C14.8722 19.9511 15.5385 19.5734 16.2047 19.2194C16.871 18.8653 17.573 18.5702 18.3106 18.3342C18.8579 18.1218 19.4409 18.11 20.0596 18.2988C20.4166 18.4168 20.7497 18.6057 21.059 18.8653C21.3684 19.125 21.6182 19.42 21.8086 19.7505C22.1655 20.3642 22.3202 21.0369 22.2726 21.7686C22.225 22.4768 21.9871 23.1023 21.5587 23.6452C21.3684 23.9048 20.9876 24.2353 20.4166 24.6366C19.8455 25.0379 19.2268 25.4509 18.5605 25.8758C17.918 26.2771 17.2874 26.6548 16.6688 27.0088C16.0739 27.3629 15.6337 27.6107 15.3481 27.7524C16.3951 28.5785 17.454 29.3929 18.5248 30.1954C19.5956 30.9744 20.5474 31.8949 21.3803 32.9571C21.8086 33.5 22.0941 34.161 22.2369 34.9399C22.3797 35.7189 22.3202 36.4388 22.0584 37.0997C21.7729 37.8551 21.3208 38.3508 20.7021 38.5868C20.1072 38.8228 19.4409 38.8937 18.7033 38.7992C17.9656 38.6812 17.2042 38.4452 16.4189 38.0911C15.6337 37.7134 14.9079 37.2886 14.2416 36.8165C13.385 36.2264 12.5759 35.5772 11.8145 34.8691C11.053 34.161 10.3035 33.441 9.5658 32.7093C9.51821 33.4646 9.48251 34.22 9.45872 34.9753C9.43492 35.7307 9.36354 36.486 9.24456 37.2413C9.14938 37.737 9.0066 38.2445 8.81624 38.7638C8.64967 39.2595 8.41171 39.708 8.10237 40.1093C7.91201 40.3689 7.68595 40.6168 7.4242 40.8528C7.18625 41.0889 6.9126 41.2777 6.60326 41.4193Z" fill="#4FD1C5"/>
</svg>
